# Hierarchical Translation and Rotation (.htr) file
# Generated by EVaRT
[Header]
FileType htr
DataType HTRS
FileVersion 1
NumSegments 23
NumFrames 4
DataFrameRate 120
EulerRotationOrder ZYX
CalibrationUnits mm
RotationUnits Degrees
GlobalAxisofGravity Y
BoneLengthAxis Y
ScaleFactor 1
[SegmentNames&Hierarchy]
#CHILD            PARENT
DaveRoot          GLOBAL
Spine1            DaveRoot
Spine2            Spine1
Spine3            Spine2
Spine4            Spine3
Neck              Spine4
Head              Neck
LClavicle         Spine4
LUpperArm         LClavicle
LLowerArm         LUpperArm
LHand             LLowerArm
RClavicle         Spine4
RUpperArm         RClavicle
RLowerArm         RUpperArm
RHand             RLowerArm
RUpperLeg         DaveRoot
RLowerLeg         RUpperLeg
RFoot             RLowerLeg
RToes             RFoot
LUpperLeg         DaveRoot
LLowerLeg         LUpperLeg
LFoot             LLowerLeg
LToes             LFoot
[BasePosition]
#SegmentName      Tx   Ty   Tz   Rx   Ry   Rz   BoneLength
DaveRoot          1078.678277	988.889323	-667.355416	21.100172	-35.850280	-13.563871	100.000000
Spine1            0.000000	100.000000	0.000000	-14.881963	2.292165	3.740750	100.000000
Spine2            0.000000	100.000000	0.000000	6.530342	0.668586	4.295175	100.000000
Spine3            0.000000	100.000000	0.000000	12.838786	0.191691	4.342582	100.000000
Spine4            0.000000	100.000000	0.000000	14.062130	1.171471	5.872723	100.000000
Neck              0.000000	100.000000	0.000000	7.737895	11.498691	-3.920750	80.000000
Head              0.000000	80.000000	0.000000	-47.820279	-9.378091	-2.499782	200.000000
LClavicle         0.000000	100.000000	0.000000	7.006000	0.163524	-123.648937	200.000000
LUpperArm         0.000000	200.000000	0.000000	39.957204	52.516966	-16.160711	300.000000
LLowerArm         0.000000	300.000000	0.000000	-1.806693	2.175812	1.895763	200.000000
LHand             0.000000	200.000000	0.000000	16.195035	-1.768569	8.793625	120.000000
RClavicle         0.000000	100.000000	0.000000	3.329328	-3.962094	109.315139	200.000000
RUpperArm         0.000000	200.000000	0.000000	31.467517	-27.516660	21.198784	300.000000
RLowerArm         0.000000	300.000000	0.000000	20.023297	-3.682026	-7.348670	200.000000
RHand             0.000000	200.000000	0.000000	6.266882	13.427731	10.826414	120.000000
RUpperLeg         -115.911102	-10.000000	31.058285	22.207319	27.607647	-154.283666	530.000000
RLowerLeg         0.000000	530.000000	0.000000	-15.604109	0.479387	-2.520024	460.000000
RFoot             0.000000	460.000000	0.000000	98.099007	-9.797309	28.788465	130.000000
RToes             0.000000	130.000000	0.000000	-15.148141	0.005479	-0.002881	100.000000
LUpperLeg         115.911102	-10.000000	31.058285	41.660003	-3.682702	-163.432677	530.000000
LLowerLeg         0.000000	530.000000	0.000000	-22.778950	-3.275937	3.046484	460.000000
LFoot             0.000000	460.000000	0.000000	77.647326	-23.190969	-3.622247	130.000000
LToes             0.000000	130.000000	0.000000	14.512714	-0.000000	-0.000086	100.000000
#Beginning of Data.
[DaveRoot]
#Fr	Tx	Ty	Tz	Rx	Ry	Rz	SF
728	-1743.640424	-989.700582	759.929881	123.060131	4.485320	156.068003	1.000000	
729	-1746.687420	-991.934114	759.124081	122.930059	3.670227	157.592005	1.000000	
730	-1749.796282	-993.939861	758.176415	122.778122	2.779354	159.078355	1.000000	
731	-1752.948681	-995.792209	757.184012	122.624465	1.852613	160.549643	1.000000	
[Spine1]
#Fr	Tx	Ty	Tz	Rx	Ry	Rz	SF
728	0.000000	0.000000	0.000000	-1.247657	-3.973801	-5.477607	1.000000	
729	0.000000	0.000000	0.000000	-1.220669	-4.006408	-5.507304	1.000000	
730	0.000000	0.000000	0.000000	-1.191991	-4.040869	-5.560336	1.000000	
731	0.000000	0.000000	0.000000	-1.171831	-4.080126	-5.620659	1.000000	
[Spine2]
#Fr	Tx	Ty	Tz	Rx	Ry	Rz	SF
728	0.000000	0.000000	0.000000	-1.247657	-3.973801	-5.477607	1.000000	
729	0.000000	0.000000	0.000000	-1.220669	-4.006408	-5.507304	1.000000	
730	0.000000	0.000000	0.000000	-1.191991	-4.040869	-5.560336	1.000000	
731	0.000000	0.000000	0.000000	-1.171831	-4.080126	-5.620659	1.000000	
[Spine3]
#Fr	Tx	Ty	Tz	Rx	Ry	Rz	SF
728	0.000000	0.000000	0.000000	-1.247657	-3.973801	-5.477607	1.000000	
729	0.000000	0.000000	0.000000	-1.220669	-4.006408	-5.507304	1.000000	
730	0.000000	0.000000	0.000000	-1.191991	-4.040869	-5.560336	1.000000	
731	0.000000	0.000000	0.000000	-1.171831	-4.080126	-5.620659	1.000000	
[Spine4]
#Fr	Tx	Ty	Tz	Rx	Ry	Rz	SF
728	0.000000	0.000000	0.000000	-1.247657	-3.973801	-5.477607	1.000000	
729	0.000000	0.000000	0.000000	-1.220669	-4.006408	-5.507304	1.000000	
730	0.000000	0.000000	0.000000	-1.191991	-4.040869	-5.560336	1.000000	
731	0.000000	0.000000	0.000000	-1.171831	-4.080126	-5.620659	1.000000	
[Neck]
#Fr	Tx	Ty	Tz	Rx	Ry	Rz	SF
728	0.000000	0.000000	0.000000	16.284701	13.940174	18.325077	1.000000	
729	0.000000	0.000000	0.000000	16.602338	13.582082	18.690648	1.000000	
730	0.000000	0.000000	0.000000	16.866440	13.207688	18.993367	1.000000	
731	0.000000	0.000000	0.000000	17.094494	12.842709	19.236923	1.000000	
[Head]
#Fr	Tx	Ty	Tz	Rx	Ry	Rz	SF
728	0.000000	0.000000	0.000000	16.284701	13.940174	18.325077	1.000000	
729	0.000000	0.000000	0.000000	16.602338	13.582082	18.690648	1.000000	
730	0.000000	0.000000	0.000000	16.866440	13.207688	18.993367	1.000000	
731	0.000000	0.000000	0.000000	17.094494	12.842709	19.236923	1.000000	
[LClavicle]
#Fr	Tx	Ty	Tz	Rx	Ry	Rz	SF
728	0.000000	0.000000	0.000000	-8.881693	3.209792	39.040571	1.000000	
729	0.000000	0.000000	0.000000	-9.072758	3.373175	39.554721	1.000000	
730	0.000000	0.000000	0.000000	-9.303744	3.577462	40.178698	1.000000	
731	0.000000	0.000000	0.000000	-9.539018	3.803612	40.869790	1.000000	
[LUpperArm]
#Fr	Tx	Ty	Tz	Rx	Ry	Rz	SF
728	0.000000	0.000000	0.000000	76.312646	84.253986	162.599566	1.000000	
729	0.000000	0.000000	0.000000	74.648596	83.713094	160.519555	1.000000	
730	0.000000	0.000000	0.000000	72.373839	83.151140	157.810375	1.000000	
731	0.000000	0.000000	0.000000	70.044994	82.596894	155.003642	1.000000	
[LLowerArm]
#Fr	Tx	Ty	Tz	Rx	Ry	Rz	SF
728	0.000000	0.000000	0.000000	-84.238115	0.000000	0.000000	1.000000	
729	0.000000	0.000000	0.000000	-84.607012	0.000000	0.000000	1.000000	
730	0.000000	0.000000	0.000000	-85.024681	0.000000	0.000000	1.000000	
731	0.000000	0.000000	0.000000	-85.502030	0.000000	0.000000	1.000000	
[LHand]
#Fr	Tx	Ty	Tz	Rx	Ry	Rz	SF
728	0.000000	0.000000	0.000000	14.333493	-0.000000	0.000000	1.000000	
729	0.000000	0.000000	0.000000	14.196560	-0.000000	0.000000	1.000000	
730	0.000000	0.000000	0.000000	14.085983	-0.000000	0.000000	1.000000	
731	0.000000	0.000000	0.000000	14.013581	-0.000000	0.000000	1.000000	
[RClavicle]
#Fr	Tx	Ty	Tz	Rx	Ry	Rz	SF
728	0.000000	0.000000	0.000000	-3.005918	0.218587	2.639491	1.000000	
729	0.000000	0.000000	0.000000	-2.858944	0.198545	2.453484	1.000000	
730	0.000000	0.000000	0.000000	-2.757464	0.186094	2.342059	1.000000	
731	0.000000	0.000000	0.000000	-2.661392	0.176640	2.278636	1.000000	
[RUpperArm]
#Fr	Tx	Ty	Tz	Rx	Ry	Rz	SF
728	0.000000	0.000000	0.000000	-16.702058	31.452763	-116.584305	1.000000	
729	0.000000	0.000000	0.000000	-18.341945	37.116305	-117.204802	1.000000	
730	0.000000	0.000000	0.000000	-19.528370	40.309161	-117.691856	1.000000	
731	0.000000	0.000000	0.000000	-20.454534	42.228755	-118.083819	1.000000	
[RLowerArm]
#Fr	Tx	Ty	Tz	Rx	Ry	Rz	SF
728	0.000000	0.000000	0.000000	8.912319	0.000000	0.000000	1.000000	
729	0.000000	0.000000	0.000000	13.369349	0.000000	0.000000	1.000000	
730	0.000000	0.000000	0.000000	16.245068	0.000000	0.000000	1.000000	
731	0.000000	0.000000	0.000000	18.445554	0.000000	0.000000	1.000000	
[RHand]
#Fr	Tx	Ty	Tz	Rx	Ry	Rz	SF
728	0.000000	0.000000	0.000000	18.169986	-24.846836	-54.587467	1.000000	
729	0.000000	0.000000	0.000000	18.311794	-28.439191	-53.045272	1.000000	
730	0.000000	0.000000	0.000000	18.541569	-30.330308	-52.522220	1.000000	
731	0.000000	0.000000	0.000000	18.800866	-31.406694	-52.464802	1.000000	
[RUpperLeg]
#Fr	Tx	Ty	Tz	Rx	Ry	Rz	SF
728	0.000000	0.000000	0.000000	-1.747527	-5.819460	-3.168620	1.000000	
729	0.000000	0.000000	0.000000	-1.506254	-5.634746	-3.283749	1.000000	
730	0.000000	0.000000	0.000000	-1.252459	-5.445187	-3.506371	1.000000	
731	0.000000	0.000000	0.000000	-0.971125	-5.264492	-3.778849	1.000000	
[RLowerLeg]
#Fr	Tx	Ty	Tz	Rx	Ry	Rz	SF
728	0.000000	0.000000	0.000000	-1.568276	-0.000000	0.000000	1.000000	
729	0.000000	0.000000	0.000000	-1.504991	-0.000000	0.000000	1.000000	
730	0.000000	0.000000	0.000000	-1.370379	-0.000000	0.000000	1.000000	
731	0.000000	0.000000	0.000000	-1.190872	-0.000000	0.000000	1.000000	
[RFoot]
#Fr	Tx	Ty	Tz	Rx	Ry	Rz	SF
728	0.000000	0.000000	0.000000	-40.329292	-18.939174	-3.174157	1.000000	
729	0.000000	0.000000	0.000000	-39.887186	-17.887345	-3.752749	1.000000	
730	0.000000	0.000000	0.000000	-39.391543	-17.019116	-4.238113	1.000000	
731	0.000000	0.000000	0.000000	-38.987785	-16.459625	-4.620377	1.000000	
[RToes]
#Fr	Tx	Ty	Tz	Rx	Ry	Rz	SF
728	0.000000	0.000000	0.000000	32.949926	0.000000	0.000000	1.000000	
729	0.000000	0.000000	0.000000	31.922432	0.000000	0.000000	1.000000	
730	0.000000	0.000000	0.000000	30.894152	0.000000	0.000000	1.000000	
731	0.000000	0.000000	0.000000	30.142897	-0.000000	-0.000000	1.000000	
[LUpperLeg]
#Fr	Tx	Ty	Tz	Rx	Ry	Rz	SF
728	0.000000	0.000000	0.000000	-17.174698	15.828902	-18.956148	1.000000	
729	0.000000	0.000000	0.000000	-16.596136	15.437182	-18.714276	1.000000	
730	0.000000	0.000000	0.000000	-16.026863	15.036056	-18.592112	1.000000	
731	0.000000	0.000000	0.000000	-15.458423	14.646742	-18.538572	1.000000	
[LLowerLeg]
#Fr	Tx	Ty	Tz	Rx	Ry	Rz	SF
728	0.000000	0.000000	0.000000	-17.373645	0.000000	0.000000	1.000000	
729	0.000000	0.000000	0.000000	-17.767570	0.000000	0.000000	1.000000	
730	0.000000	0.000000	0.000000	-18.067124	0.000000	0.000000	1.000000	
731	0.000000	0.000000	0.000000	-18.260789	0.000000	0.000000	1.000000	
[LFoot]
#Fr	Tx	Ty	Tz	Rx	Ry	Rz	SF
728	0.000000	0.000000	0.000000	7.747585	-32.130268	-13.755923	1.000000	
729	0.000000	0.000000	0.000000	7.664464	-30.096800	-13.200595	1.000000	
730	0.000000	0.000000	0.000000	7.442446	-27.887425	-12.618986	1.000000	
731	0.000000	0.000000	0.000000	7.092493	-25.666305	-12.077248	1.000000	
[LToes]
#Fr	Tx	Ty	Tz	Rx	Ry	Rz	SF
728	0.000000	0.000000	0.000000	-23.134304	0.000000	0.000000	1.000000	
729	0.000000	0.000000	0.000000	-22.641849	0.000000	0.000000	1.000000	
730	0.000000	0.000000	0.000000	-22.133711	0.000000	0.000000	1.000000	
731	0.000000	0.000000	0.000000	-21.642022	0.000000	0.000000	1.000000	
